<svg width="110" height="150" viewBox="0 0 110 150" fill="none" xmlns="http://www.w3.org/2000/svg">
  <path d="M2,55 A53,53 0 0,1 108,55 L108,148 L2,148 Z" fill="#FFFFFF" stroke="#A33B24" stroke-width="4"/>
  <g transform="translate(23, 43)" stroke="#333333" fill="none">
    <circle cx="32" cy="12" r="6" stroke-width="2.5" />
    <path d="M25 20c-8 3-10 10-8 16M39 20c8 3 10 10 8 16" stroke-width="2.5" />
    <path d="M22 36c-2 8-2 18 0 24M42 36c2 8 2 18 0 24" stroke-width="2.5" />
    <path d="M22 36h20" stroke-width="2" />
    <path d="M26 60c3-2 9-2 12 0" stroke-width="2.5" />
  </g>
</svg>
