<svg width="120" height="120" viewBox="0 0 120 120" fill="none" xmlns="http://www.w3.org/2000/svg">
  <polygon points="35,0 85,0 120,35 120,85 85,120 35,120 0,85 0,35" fill="#A33B24"/>
  <g transform="translate(28, 28)" stroke="#FFFFFF" fill="none">
    <path d="M32 10c-4 0-7 3-7 7s3 7 7 7" stroke-width="2.5" />
    <path d="M22 32c-2 6-2 18 2 26M42 32c2 6 2 18-2 26" stroke-width="2.5" />
    <path d="M22 32c4-2 16-2 20 0" stroke-width="2.5" />
    <path d="M26 58c4-2 8-2 12 0" stroke-width="2.5" />
    <path d="M30 24c-4 4-6 10-4 14s6 6 8 6" stroke-width="2" />
    <path d="M34 24c4 4 6 10 4 14s-6 6-8 6" stroke-width="2" />
  </g>
</svg>
