<svg width="110" height="150" viewBox="0 0 110 150" fill="none" xmlns="http://www.w3.org/2000/svg">
  <path d="M2,55 A53,53 0 0,1 108,55 L108,148 L2,148 Z" fill="#FFFFFF" stroke="#A33B24" stroke-width="4"/>
  <g transform="translate(23, 43)" stroke="#333333" fill="none">
    <circle cx="32" cy="30" r="18" stroke-width="2.5" />
    <path d="M32 12c0 0 6 8 6 18s-6 18-6 18" stroke-width="1.5" />
    <path d="M32 12c0 0-6 8-6 18s6 18 6 18" stroke-width="1.5" />
    <path d="M14 30c0 0 8-6 18-6s18 6 18 6" stroke-width="1.5" />
    <path d="M14 30c0 0 8 6 18 6s18-6 18-6" stroke-width="1.5" />
    <path d="M38 48c0 0 2 4 0 8s-6 4-6 4" stroke-width="2.5" stroke-linecap="round" />
    <path d="M42 20l15 -15M22 20l-15 -15" stroke-width="2.5" stroke-linecap="round" />
  </g>
</svg>
